<svg width="36" height="36" viewBox="0 0 36 36" fill="none" xmlns="http://www.w3.org/2000/svg">
<path d="M35.0664 19.4047C35.6327 19.4054 36.0691 19.9037 35.9909 20.4623C35.1966 26.1466 31.6882 31.3061 26.2816 34.0381C25.8081 34.2774 25.32 34.4979 24.8179 34.6988C19.7972 36.7061 14.4059 36.3117 9.9282 34.0611C6.14339 32.1592 3.01105 28.931 1.30687 24.7063C-2.41342 15.4837 2.08044 5.005 11.3448 1.30115C20.6092 -2.40269 31.1352 2.07095 34.8558 11.2936C35.3242 12.4545 35.6622 13.6354 35.8771 14.8202C35.9806 15.3907 35.5384 15.9145 34.9562 15.9139L29.3811 15.9078C28.7923 15.9072 28.2713 15.5258 28.0984 14.9653C28.012 14.6854 27.9131 14.4067 27.8017 14.1301C25.6438 8.78156 19.5389 6.1868 14.1661 8.33501C8.79309 10.4829 6.18661 16.5604 8.34453 21.9092C9.24713 24.1462 10.8399 25.9015 12.7809 27.0294C13.2867 27.3232 13.9367 27.1502 14.2294 26.6452L14.9339 25.4307C15.2242 24.9302 15.0572 24.2877 14.5557 23.9965C12.58 22.8508 11.2203 20.7674 11.0922 18.359C10.8734 14.2498 14.3055 10.8289 18.4333 11.0416C22.1198 11.2315 25.0504 14.2673 25.0504 17.9848C25.0504 20.5805 23.6216 22.8438 21.5045 24.038C21.0805 24.2771 20.9311 24.8121 21.1749 25.2323L22.0674 26.7712C22.3069 27.1845 22.8368 27.3296 23.2537 27.0945C25.8456 25.6325 27.6179 23.1795 28.2758 20.4242C28.4195 19.8222 28.9627 19.399 29.5844 19.3996L35.067 19.4054L35.0664 19.4047Z" fill="url(#paint0_linear_422_291)"/>
<defs>
<linearGradient id="paint0_linear_422_291" x1="8.88408" y1="2.50537" x2="27.1562" y2="33.5668" gradientUnits="userSpaceOnUse">
<stop stop-color="white"/>
<stop offset="1" stop-color="white"/>
</linearGradient>
</defs>
</svg>
