<svg width="18" height="23" viewBox="0 0 18 23" fill="none" xmlns="http://www.w3.org/2000/svg">
<path d="M12.7511 5.72904C12.7511 7.80072 11.0717 9.48015 8.99998 9.48015V11.2114C12.0278 11.2114 14.4824 8.75688 14.4824 5.72904H12.7511ZM8.99998 9.48015C6.9283 9.48015 5.24888 7.80072 5.24888 5.72904H3.5176C3.5176 8.75688 5.97215 11.2114 8.99998 11.2114V9.48015ZM5.24888 5.72904C5.24888 3.65737 6.9283 1.97794 8.99998 1.97794V0.246666C5.97215 0.246666 3.5176 2.70121 3.5176 5.72904H5.24888ZM8.99998 1.97794C11.0717 1.97794 12.7511 3.65737 12.7511 5.72904H14.4824C14.4824 2.70121 12.0278 0.246666 8.99998 0.246666V1.97794ZM16.2136 17.848C16.2136 18.459 15.6958 19.2452 14.3258 19.9302C13.0075 20.5893 11.1258 21.022 8.99998 21.022V22.7533C11.3363 22.7533 13.4942 22.2816 15.1 21.4787C16.6541 20.7017 17.9449 19.468 17.9449 17.848H16.2136ZM8.99998 21.022C6.87419 21.022 4.99245 20.5893 3.67418 19.9302C2.30414 19.2452 1.78632 18.459 1.78632 17.848H0.055046C0.055046 19.468 1.34584 20.7017 2.89993 21.4787C4.50579 22.2816 6.6637 22.7533 8.99998 22.7533V21.022ZM1.78632 17.848C1.78632 17.237 2.30414 16.4508 3.67418 15.7658C4.99245 15.1066 6.87419 14.674 8.99998 14.674V12.9427C6.6637 12.9427 4.50579 13.4143 2.89993 14.2173C1.34584 14.9943 0.055046 16.228 0.055046 17.848H1.78632ZM8.99998 14.674C11.1258 14.674 13.0075 15.1066 14.3258 15.7658C15.6958 16.4508 16.2136 17.237 16.2136 17.848H17.9449C17.9449 16.228 16.6541 14.9943 15.1 14.2173C13.4942 13.4143 11.3363 12.9427 8.99998 12.9427V14.674Z" fill="#7D848D"/>
</svg>
