<svg width="26" height="26" viewBox="0 0 26 26" fill="none" xmlns="http://www.w3.org/2000/svg">
<path fill-rule="evenodd" clip-rule="evenodd" d="M12.448 3.18923L13 2.14296L13.552 3.18923C13.7546 3.57317 14.1238 3.84142 14.5516 3.91543L15.7172 4.11712L14.8927 4.96543C14.5902 5.27673 14.4491 5.71077 14.5109 6.14045L14.6793 7.31136L13.6177 6.78939C13.2282 6.59784 12.7718 6.59784 12.3823 6.78939L11.3207 7.31136L11.4891 6.14045C11.5509 5.71077 11.4098 5.27673 11.1073 4.96543L10.2828 4.11712L11.4484 3.91543C11.8762 3.84142 12.2454 3.57317 12.448 3.18923ZM12.6462 0.670521C12.7963 0.386063 13.2037 0.386062 13.3538 0.67052L14.4365 2.72259C14.4943 2.83228 14.5998 2.90893 14.722 2.93007L17.0082 3.32564C17.3252 3.38048 17.451 3.76793 17.2269 3.99857L15.6098 5.66239C15.5234 5.75133 15.4831 5.87534 15.5007 5.99811L15.831 8.29465C15.8768 8.613 15.5472 8.85246 15.2586 8.71054L13.1765 7.68677C13.0652 7.63204 12.9348 7.63204 12.8235 7.68677L10.7414 8.71054C10.4528 8.85246 10.1232 8.613 10.169 8.29465L10.4993 5.99811C10.5169 5.87534 10.4766 5.75133 10.3902 5.66239L8.77311 3.99857C8.54895 3.76793 8.67484 3.38048 8.99176 3.32564L11.278 2.93007C11.4002 2.90893 11.5057 2.83228 11.5635 2.72259L12.6462 0.670521ZM9 13C9 12.4477 9.44771 12 10 12H16C16.5523 12 17 12.4477 17 13V15V16V25H9V19V18V13ZM18 25V16H24C24.5523 16 25 16.4477 25 17V24C25 24.5523 24.5523 25 24 25H18ZM24 15H18V13C18 11.8954 17.1046 11 16 11H10C8.89543 11 8 11.8954 8 13V18H2C0.895431 18 0 18.8954 0 20V24C0 25.1046 0.89543 26 2 26H8H9H17H18H24C25.1046 26 26 25.1046 26 24V17C26 15.8954 25.1046 15 24 15ZM8 25V19H2C1.44772 19 1 19.4477 1 20V24C1 24.5523 1.44772 25 2 25H8Z" fill="#7D848D"/>
</svg>
