<svg width="26" height="25" viewBox="0 0 26 25" fill="none" xmlns="http://www.w3.org/2000/svg">
<path d="M24.5418 12.5C24.5418 18.8744 19.3744 24.0418 13 24.0418M24.5418 12.5C24.5418 6.12559 19.3744 0.95813 13 0.95813M24.5418 12.5C24.5418 10.5877 19.3744 9.03743 13 9.03742C6.62559 9.03742 1.45813 10.5877 1.45813 12.5M24.5418 12.5C24.5418 14.4123 19.3744 15.9625 13 15.9625C6.62559 15.9625 1.45813 14.4123 1.45813 12.5M13 24.0418C6.62559 24.0418 1.45813 18.8744 1.45813 12.5M13 24.0418C15.5497 24.0418 17.6167 18.8744 17.6167 12.5C17.6167 6.12559 15.5497 0.95813 13 0.95813M13 24.0418C10.4502 24.0418 8.38324 18.8744 8.38324 12.5C8.38324 6.12559 10.4502 0.95813 13 0.95813M1.45813 12.5C1.45813 6.12559 6.62559 0.95813 13 0.95813" stroke="#7D848D" stroke-width="1.73128"/>
</svg>
